<?xml version="1.0" standalone="no"?>
<!DOCTYPE svg PUBLIC "-//W3C//DTD SVG 20010904//EN"
 "http://www.w3.org/TR/2001/REC-SVG-20010904/DTD/svg10.dtd">
<svg version="1.0" xmlns="http://www.w3.org/2000/svg"
 width="225.000000pt" height="225.000000pt" viewBox="0 0 225.000000 225.000000"
 preserveAspectRatio="xMidYMid meet">
<metadata>
Created by potrace 1.10, written by Peter Selinger 2001-2011
</metadata>
<g transform="translate(0.000000,225.000000) scale(0.100000,-0.100000)"
fill="#000000" stroke="none">
<path d="M1084 1816 c-3 -7 -4 -35 -2 -62 2 -37 7 -50 21 -52 15 -3 17 5 17
62 0 53 -3 66 -15 66 -9 0 -18 -6 -21 -14z"/>
<path d="M880 1702 c0 -10 18 -35 40 -57 34 -33 41 -36 55 -25 14 12 11 18
-27 57 -45 46 -68 54 -68 25z"/>
<path d="M1246 1681 c-25 -25 -37 -45 -33 -55 4 -9 10 -16 15 -16 16 0 94 88
88 99 -12 19 -31 12 -70 -28z"/>
<path d="M1050 1610 c-11 -11 -20 -29 -20 -39 0 -12 -9 -21 -25 -25 -14 -4
-44 -23 -67 -44 -144 -129 -84 -367 104 -412 149 -36 287 69 294 225 l3 60
148 28 c81 15 154 29 160 32 7 2 23 25 35 50 39 80 42 80 -261 83 -209 2 -261
5 -261 16 0 21 -34 46 -63 46 -15 0 -36 -9 -47 -20z m70 -35 c0 -9 -9 -15 -25
-15 -24 0 -32 10 -18 23 12 13 43 7 43 -8z m73 -77 c117 -59 139 -221 42 -314
-73 -71 -167 -78 -254 -21 -70 46 -101 159 -68 240 17 38 87 105 119 111 53
12 64 13 93 8 17 -3 47 -13 68 -24z m457 16 c0 -32 -30 -45 -177 -72 l-152
-28 -12 28 c-6 16 -25 39 -40 53 -16 13 -29 25 -29 27 0 2 92 3 205 3 138 0
205 -3 205 -11z"/>
<path d="M1029 1391 c-21 -22 -29 -39 -29 -66 0 -51 44 -95 95 -95 50 0 74 15
91 57 42 99 -80 180 -157 104z m105 -27 c19 -18 21 -65 4 -82 -30 -30 -98 -1
-98 41 0 48 61 74 94 41z"/>
<path d="M830 1113 c-106 -63 -175 -144 -211 -250 -21 -60 -23 -88 -24 -230 0
-157 1 -162 24 -187 l24 -26 454 0 454 0 24 25 c24 23 25 28 25 177 0 84 -5
173 -11 197 -27 118 -122 242 -226 294 -48 25 -52 25 -66 9 -15 -16 -13 -19
32 -40 106 -48 195 -162 220 -280 14 -67 14 -297 1 -323 -10 -18 -26 -19 -449
-19 -372 0 -440 2 -451 15 -8 10 -11 61 -8 182 3 164 4 170 34 233 37 78 100
144 178 186 54 29 56 31 38 47 -16 15 -21 14 -62 -10z"/>
</g>
</svg>
